# xmcd
#
# Track frame offsets:
#	150
#	48368
#	181267
#
# Disc length: 4607 seconds
#
# Revision: 2
# Processed by: cddbd v1.5.2PL0 Copyright (c) Steve Scherf et al.
# Submitted via: audiograbber 1.83.01
#
DISCID=1d11fd03
DTITLE=Klaus Schulze - Ballett 1 and 2 [CD 1) - Ballett 1 [ex: Contemporary Works
DTITLE=[CD 06) [2000]]
DYEAR=2017
DGENRE=Electronic
TTITLE0=Getting Near
TTITLE1=Slightly Touched
TTITLE2=Agony
EXTD=
EXTT0=
EXTT1=
EXTT2=
PLAYORDER=
